<svg xmlns="http://www.w3.org/2000/svg" width="64" height="64" fill="#6c757d" class="bi bi-camera-video-off" viewBox="0 0 16 16">
  <path fill-rule="evenodd" d="M10.961 12.365a1.99 1.99 0 0 0 .522-1.103l3.11 1.382A1 1 0 0 0 16 11.731V4.269a1 1 0 0 0-1.406-.913l-3.111 1.382A2 2 0 0 0 9.5 3H4.272l.714 1H9.5a1 1 0 0 1 1 1v6a1 1 0 0 1-.144.518zM1.428 4.18A.999.999 0 0 0 1 5v6a1 1 0 0 0 1 1h5.014l.714 1H2a2 2 0 0 1-2-2V5c0-.675.334-1.272.847-1.634l.581.814zM15 11.73l-3.5-1.555V5.825L15 4.27v7.46zm-14.854-9.35a.5.5 0 0 1 .708 0l13 13a.5.5 0 0 1-.708.708l-13-13a.5.5 0 0 1 0-.708z"/>
</svg>
